<?xml version="1.0" encoding="utf-8"?>
<!-- Generator: Adobe Illustrator 24.0.1, SVG Export Plug-In . SVG Version: 6.00 Build 0)  -->
<svg version="1.1" id="Layer_1" xmlns="http://www.w3.org/2000/svg" xmlns:xlink="http://www.w3.org/1999/xlink" x="0px" y="0px"
	 viewBox="0 0 2000 2000" style="enable-background:new 0 0 2000 2000;" xml:space="preserve">
<style type="text/css">
	.st0{fill:#F8FEFF;}
	.st1{fill:#0C5B77;}
	.st2{fill:#00BDFF;}
	.st3{fill:#1188BC;}
</style>
<rect class="st0" width="2000" height="2000"/>
<g>
	<g>
		<g>
			<g>
				<g>
					<path class="st1" d="M438.66,1346.66V1227.6h104.59c9.56,0,16.59,1.85,21.09,5.57c4.24,3.64,6.36,9.48,6.36,17.52v14.53
						c0,5.56-1.81,10.1-5.44,13.63c-3.74,3.64-8.96,5.78-15.64,6.42c7.03,0.94,12.49,3.42,16.39,7.43
						c3.79,3.91,5.67,9.05,5.67,15.43v15.21c0,7.74-3,13.59-9.02,17.57c-5.82,3.83-14.81,5.74-26.97,5.74H438.66z M531.42,1246.97
						h-64.84v28.39h64.84c4.73,0,8.12-0.6,10.17-1.8c1.89-1.43,2.83-3.67,2.83-6.72v-11.35c0-3.05-0.94-5.28-2.83-6.72
						C539.54,1247.58,536.15,1246.97,531.42,1246.97z M531.42,1294.96h-64.84v30.25h64.84c5.43,0,9.05-0.77,10.86-2.31
						c1.89-1.61,2.83-4.37,2.83-8.28v-9.01c0-3.94-0.94-6.72-2.83-8.33C540.43,1295.73,536.81,1294.96,531.42,1294.96z"/>
					<path class="st1" d="M659.35,1255.76c0-10.7,2.04-18.08,6.13-22.13c4.36-4.01,12.41-6.02,24.16-6.02h90.01
						c11.86,0,19.82,2.01,23.87,6.02c4.28,3.95,6.41,11.32,6.41,22.13v62.74c0,10.85-2.13,18.25-6.41,22.19
						c-4.08,3.98-12.04,5.97-23.87,5.97h-90.01c-11.71,0-19.77-1.99-24.16-5.97c-4.08-4.06-6.13-11.45-6.13-22.19V1255.76z
						 M687.78,1324.3h93.72v-75.47h-93.72V1324.3z"/>
					<path class="st1" d="M889.16,1346.66l68.83-119.06h27.5l70.03,119.06h-31.95l-14.68-26.07h-77.37l-14.22,26.07H889.16z
						 M943.83,1299.13h53.45l-26.47-48.44L943.83,1299.13z"/>
					<path class="st1" d="M1181.28,1248.83v97.83h-28.43v-97.83h-56.05v-21.23h140.82v21.23H1181.28z"/>
					<path class="st1" d="M1441.76,1279.98c-4.39-3.98-12.53-5.97-24.38-5.97h-76.22v-25.63h79.97v11.46h25.08v-6.16
						c0-9.65-2.12-16.41-6.36-20.28c-4.43-3.87-12.41-5.8-23.92-5.8h-69.35c-11.82,0-19.8,2.01-23.92,6.03
						c-4.24,3.95-6.36,11.33-6.36,22.15v13.19c0,10.82,2.12,18.21,6.36,22.15c4.16,3.98,12.13,5.98,23.92,5.98h76.22v27.2h-86.39
						v-11.28h-25.07v5.5c0,10.84,2.12,18.24,6.35,22.18c4.16,3.98,12.22,5.97,24.16,5.97h75.53c11.85,0,19.99-1.99,24.38-5.97
						c4.08-4.06,6.13-11.45,6.13-22.19v-16.39C1447.88,1291.41,1445.84,1284.03,1441.76,1279.98z"/>
				</g>
				<g>
					<path class="st2" d="M530.56,825.3h-90.1v127.12c25.51-4.85,55.86-9.16,90.1-11.5V825.3z"/>
					<path class="st2" d="M1026.71,989.71c-23.6-12.85-51.67-19.47-75.75-25.13c-44.5-10.47-63.1-17.02-63.1-30.54
						c0-22.46,37.05-24.98,52.97-25.03h321.44c26.75,0,42.81,5.79,52.49,13.51c32.52-1.33,66.64,1.58,103.33,10.98
						c-10.74-67.35-67.85-108.2-154.45-108.2l-322.9,0.06c-104.5,0.42-141.58,59.5-141.58,109.98c0,13.85,2.2,25.8,6.05,36.21
						c4.64,1.39,9.27,2.72,13.94,4.22C898.37,1001.13,965.26,1000.55,1026.71,989.71z"/>
					<path class="st2" d="M760.36,825.3h-70.03l-93.64,113.87c49.75,0.83,105.03,6.63,163.66,20.39V825.3z"/>
					<path class="st3" d="M1386.06,1044.98c22.05-22.52,33.9-52.68,33.9-87.61c0-8.29-0.65-16.25-1.87-23.88
						c-36.69-9.4-70.8-12.31-103.33-10.98c14.59,11.64,14.61,27.66,14.61,34.86c0,5.83,0,17.95-8.22,28.35
						c-10.27,12.98-30.07,19.57-58.88,19.57h-145.79v80.38C1203.13,1059.79,1285.27,1028.57,1386.06,1044.98z"/>
					<path class="st1" d="M1361.26,1064.51c9.32-5.62,17.6-12.17,24.8-19.53c-100.8-16.42-182.93,14.81-269.58,40.69v98.22h90.11
						v-95.34h57.04c3.29,0,6.47-0.08,9.58-0.21l68.36,94.78l0.56,0.77h105.74L1361.26,1064.51z"/>
					<path class="st3" d="M1026.71,989.71c-61.45,10.84-128.35,11.42-207.56-13.95c-4.68-1.5-9.3-2.83-13.94-4.22
						c18.58,50.27,76.48,64.04,120.83,74.55c44.38,10.52,62.93,17.13,62.93,30.8c0,21.37-33.59,24.56-53.64,24.56l-1.24,0l-89.04,0
						c88.54,22.9,161.66,13.48,229.91-4.12c1.84-7.75,2.71-15.51,2.71-23.04C1077.68,1030.36,1055.53,1005.39,1026.71,989.71z"/>
					<path class="st1" d="M845.06,1101.45l-84.7,0v-23.68c-31.1-7.3-61.23-12.35-90.11-15.59v121.71l273.63-0.58
						c83.24-3.21,121.21-44.42,131.09-85.98C1006.72,1114.93,933.6,1124.36,845.06,1101.45z"/>
					<path class="st3" d="M760.36,959.57c-58.64-13.77-113.91-19.56-163.66-20.39l-66.13,80.42v-78.68
						c-34.25,2.34-64.59,6.65-90.1,11.5v118.21c44.73-8.51,104.29-15.44,173.62-12.73l56.17-68.31v72.6
						c28.88,3.24,59.01,8.29,90.11,15.59V959.57z"/>
					<path class="st1" d="M440.46,1070.63v113.26h70.02l103.6-125.99C544.75,1055.19,485.18,1062.12,440.46,1070.63z"/>
				</g>
			</g>
		</g>
	</g>
	<path class="st1" d="M1559,899.91c-4.81-12.76-6.3-26.35-6.13-39.93c0.17-23.2-9.61-60.98-62.97-97.27
		c-33.64-22.87-92.14-42.26-153.45-41.43c-14.75-23.2-51.87-66.28-127.1-67.94c0,0,18.73,10.11,33.81,28
		c17.4,20.55,11.76,52.69-11.93,65.29c-23.36,12.26-45.07,29.99-63.13,53.86h47.56c59.82-37.45,137.54-41.26,200.84-3.81
		c16.41,9.61,28.34,19.89,36.79,29c-27.67-10.94-71.26-34.63-137.54-20.05c39.77,8.45,72.25,26.68,94.45,52.86
		c36.46,2.98,66.78,21.87,86.17,34.3c8.78,5.64,17.4,11.93,25.35,18.73c6.79,5.63,14.25,10.61,21.87,14.91
		c2.65,1.49,5.47,2.98,8.29,2.98c8.29,0,9.61-11.27,9.45-17.4C1561.16,907.7,1560.33,903.73,1559,899.91z M1531,852.85
		c-2.98,3.65-8.45,3.98-12.1,0.83c-3.65-2.98-4.14-8.62-1-12.1c3.15-3.65,8.62-4.14,12.26-1
		C1533.81,843.74,1534.14,849.21,1531,852.85z"/>
</g>
</svg>
